<mxfile host="app.diagrams.net" modified="2023-07-07T14:34:07.800Z" agent="Mozilla/5.0 (Windows NT 10.0; Win64; x64) AppleWebKit/537.36 (KHTML, like Gecko) Chrome/114.0.0.0 Safari/537.36 Edg/114.0.1823.67" etag="3aIVWLRrkAczsiomJnVi" version="21.6.1" type="github">
  <diagram name="Page-1" id="yKXJt1-yKZrtKnPpcSr4">
    <mxGraphModel dx="794" dy="1133" grid="1" gridSize="10" guides="1" tooltips="1" connect="1" arrows="1" fold="1" page="1" pageScale="1" pageWidth="827" pageHeight="1169" math="0" shadow="0">
      <root>
        <mxCell id="0" />
        <mxCell id="1" parent="0" />
        <mxCell id="a4nmMdMJ64nFMSKrA753-3" value="Départ" style="html=1;overflow=block;blockSpacing=1;whiteSpace=wrap;fontSize=16.7;fontColor=#333333;align=center;spacing=3.8;strokeColor=#5e5e5e;strokeOpacity=100;rounded=1;absoluteArcSize=1;arcSize=9;strokeWidth=2.3;lucidId=jf_~ENNJLpJF;" vertex="1" parent="1">
          <mxGeometry x="450" y="210" width="120" height="60" as="geometry" />
        </mxCell>
        <mxCell id="a4nmMdMJ64nFMSKrA753-4" value="Fin" style="html=1;overflow=block;blockSpacing=1;whiteSpace=wrap;fontSize=16.7;fontColor=#333333;align=center;spacing=3.8;strokeColor=#5e5e5e;strokeOpacity=100;rounded=1;absoluteArcSize=1;arcSize=9;strokeWidth=2.3;lucidId=Bf_~R7ApY_z_;" vertex="1" parent="1">
          <mxGeometry x="450" y="1196" width="120" height="60" as="geometry" />
        </mxCell>
        <mxCell id="a4nmMdMJ64nFMSKrA753-6" value="" style="html=1;jettySize=18;whiteSpace=wrap;fontSize=13;strokeColor=#5E5E5E;strokeWidth=1.5;rounded=1;arcSize=12;edgeStyle=orthogonalEdgeStyle;startArrow=none;endArrow=block;endFill=1;entryX=0.5;entryY=-0.019;entryPerimeter=0;lucidId=Rf_~X~6D8Y5-;exitX=0;exitY=0.5;exitDx=0;exitDy=0;" edge="1" parent="1" source="a4nmMdMJ64nFMSKrA753-25" target="a4nmMdMJ64nFMSKrA753-3">
          <mxGeometry width="100" height="100" relative="1" as="geometry">
            <Array as="points" />
            <mxPoint x="590" y="130" as="sourcePoint" />
          </mxGeometry>
        </mxCell>
        <mxCell id="a4nmMdMJ64nFMSKrA753-7" value="Site avec fichier" style="html=1;overflow=block;blockSpacing=1;whiteSpace=wrap;fontSize=16.7;fontColor=#333333;align=center;spacing=9;strokeColor=#5e5e5e;strokeOpacity=100;rounded=1;absoluteArcSize=1;arcSize=9;strokeWidth=2.3;lucidId=Xf_~uhoEr5aA;" vertex="1" parent="1">
          <mxGeometry x="450" y="529" width="120" height="90" as="geometry" />
        </mxCell>
        <mxCell id="a4nmMdMJ64nFMSKrA753-8" value="Site avec fichiers présents" style="html=1;overflow=block;blockSpacing=1;whiteSpace=wrap;rhombus;fontSize=16.7;fontColor=#333333;align=center;spacing=3.8;strokeColor=#5e5e5e;strokeOpacity=100;rounded=1;absoluteArcSize=1;arcSize=9;strokeWidth=2.3;lucidId=1h_~qBykaPww;" vertex="1" parent="1">
          <mxGeometry x="443" y="338" width="135" height="120" as="geometry" />
        </mxCell>
        <mxCell id="a4nmMdMJ64nFMSKrA753-9" value="" style="html=1;jettySize=18;whiteSpace=wrap;fontSize=13;strokeColor=#5E5E5E;strokeWidth=1.5;rounded=1;arcSize=12;edgeStyle=orthogonalEdgeStyle;startArrow=none;endArrow=block;endFill=1;exitX=0.5;exitY=1.019;exitPerimeter=0;entryX=0.5;entryY=0.005;entryPerimeter=0;lucidId=3h_~nZpE4IoY;" edge="1" parent="1" source="a4nmMdMJ64nFMSKrA753-3" target="a4nmMdMJ64nFMSKrA753-8">
          <mxGeometry width="100" height="100" relative="1" as="geometry">
            <Array as="points" />
          </mxGeometry>
        </mxCell>
        <mxCell id="a4nmMdMJ64nFMSKrA753-10" value="" style="html=1;jettySize=18;whiteSpace=wrap;fontSize=13.3;fontColor=#333333;fontStyle=1;align=center;strokeColor=#5E5E5E;strokeWidth=1.5;rounded=1;arcSize=12;edgeStyle=orthogonalEdgeStyle;startArrow=none;endArrow=block;endFill=1;exitX=0.5;exitY=0.995;exitPerimeter=0;entryX=0.5;entryY=-0.012;entryPerimeter=0;lucidId=kp_~hW5s7d3r;" edge="1" parent="1" source="a4nmMdMJ64nFMSKrA753-8" target="a4nmMdMJ64nFMSKrA753-7">
          <mxGeometry width="100" height="100" relative="1" as="geometry">
            <Array as="points" />
          </mxGeometry>
        </mxCell>
        <mxCell id="a4nmMdMJ64nFMSKrA753-11" value="Oui" style="text;html=1;resizable=0;labelBackgroundColor=default;align=center;verticalAlign=middle;fontStyle=1;fontColor=#333333;fontSize=13.3;" vertex="1" parent="a4nmMdMJ64nFMSKrA753-10">
          <mxGeometry relative="1" as="geometry" />
        </mxCell>
        <mxCell id="a4nmMdMJ64nFMSKrA753-12" value="Choix répertoire" style="html=1;overflow=block;blockSpacing=1;whiteSpace=wrap;shape=manualInput;size=15;fontSize=16.7;fontColor=#333333;align=center;spacing=3.8;strokeColor=#5e5e5e;strokeOpacity=100;rounded=1;absoluteArcSize=1;arcSize=9;strokeWidth=2.3;lucidId=Zr_~zFizqX9H;" vertex="1" parent="1">
          <mxGeometry x="450" y="690" width="120" height="90" as="geometry" />
        </mxCell>
        <mxCell id="a4nmMdMJ64nFMSKrA753-13" value="" style="html=1;jettySize=18;whiteSpace=wrap;fontSize=13;strokeColor=#5E5E5E;strokeWidth=1.5;rounded=1;arcSize=12;edgeStyle=orthogonalEdgeStyle;startArrow=none;endArrow=block;endFill=1;exitX=0.5;exitY=1.012;exitPerimeter=0;entryX=0.5;entryY=0.07;entryPerimeter=0;lucidId=gs_~Orw1N5qp;" edge="1" parent="1" source="a4nmMdMJ64nFMSKrA753-7" target="a4nmMdMJ64nFMSKrA753-12">
          <mxGeometry width="100" height="100" relative="1" as="geometry">
            <Array as="points" />
          </mxGeometry>
        </mxCell>
        <mxCell id="a4nmMdMJ64nFMSKrA753-14" value="Affichage du contenu du repertoire" style="html=1;overflow=block;blockSpacing=1;whiteSpace=wrap;fontSize=16.7;fontColor=#333333;align=center;spacing=9;strokeColor=#5e5e5e;strokeOpacity=100;rounded=1;absoluteArcSize=1;arcSize=9;strokeWidth=2.3;lucidId=us_~E_GFHP_-;" vertex="1" parent="1">
          <mxGeometry x="450" y="851" width="120" height="90" as="geometry" />
        </mxCell>
        <mxCell id="a4nmMdMJ64nFMSKrA753-15" value="" style="html=1;jettySize=18;whiteSpace=wrap;fontSize=13;strokeColor=#5E5E5E;strokeWidth=1.5;rounded=1;arcSize=12;edgeStyle=orthogonalEdgeStyle;startArrow=none;endArrow=block;endFill=1;exitX=0.5;exitY=1.012;exitPerimeter=0;entryX=0.5;entryY=-0.012;entryPerimeter=0;lucidId=Cw_~1HuJb6gi;" edge="1" parent="1" source="a4nmMdMJ64nFMSKrA753-12" target="a4nmMdMJ64nFMSKrA753-14">
          <mxGeometry width="100" height="100" relative="1" as="geometry">
            <Array as="points" />
          </mxGeometry>
        </mxCell>
        <mxCell id="a4nmMdMJ64nFMSKrA753-16" value="" style="html=1;jettySize=18;whiteSpace=wrap;fontSize=13;strokeColor=#5E5E5E;strokeWidth=1.5;rounded=1;arcSize=12;edgeStyle=orthogonalEdgeStyle;startArrow=none;endArrow=block;endFill=1;exitX=-0.009;exitY=0.501;exitPerimeter=0;entryX=0.5;entryY=-0.019;entryPerimeter=0;lucidId=3w_~o64lkY.L;" edge="1" parent="1" source="a4nmMdMJ64nFMSKrA753-12" target="a4nmMdMJ64nFMSKrA753-4">
          <mxGeometry width="100" height="100" relative="1" as="geometry">
            <Array as="points">
              <mxPoint x="420" y="735" />
              <mxPoint x="420" y="988" />
              <mxPoint x="510" y="988" />
            </Array>
          </mxGeometry>
        </mxCell>
        <mxCell id="a4nmMdMJ64nFMSKrA753-17" value="Autre répertoire" style="html=1;overflow=block;blockSpacing=1;whiteSpace=wrap;rhombus;fontSize=16.7;fontColor=#333333;align=center;spacing=3.8;strokeColor=#5e5e5e;strokeOpacity=100;rounded=1;absoluteArcSize=1;arcSize=9;strokeWidth=2.3;lucidId=~w_~0iGnQ6Xz;" vertex="1" parent="1">
          <mxGeometry x="443" y="1012" width="135" height="113" as="geometry" />
        </mxCell>
        <mxCell id="a4nmMdMJ64nFMSKrA753-18" value="" style="html=1;jettySize=18;whiteSpace=wrap;fontSize=13.3;fontColor=#333333;fontStyle=1;align=center;strokeColor=#5E5E5E;strokeWidth=1.5;rounded=1;arcSize=12;edgeStyle=orthogonalEdgeStyle;startArrow=none;endArrow=block;endFill=1;exitX=0.993;exitY=0.5;exitPerimeter=0;entryX=1.009;entryY=0.5;entryPerimeter=0;lucidId=Sx_~kHPwdU8K;" edge="1" parent="1" source="a4nmMdMJ64nFMSKrA753-17" target="a4nmMdMJ64nFMSKrA753-12">
          <mxGeometry width="100" height="100" relative="1" as="geometry">
            <Array as="points">
              <mxPoint x="620" y="1069" />
              <mxPoint x="620" y="735" />
            </Array>
          </mxGeometry>
        </mxCell>
        <mxCell id="a4nmMdMJ64nFMSKrA753-19" value="Oui" style="text;html=1;resizable=0;labelBackgroundColor=default;align=center;verticalAlign=middle;fontStyle=1;fontColor=#333333;fontSize=13.3;" vertex="1" parent="a4nmMdMJ64nFMSKrA753-18">
          <mxGeometry relative="1" as="geometry" />
        </mxCell>
        <mxCell id="a4nmMdMJ64nFMSKrA753-20" value="" style="html=1;jettySize=18;whiteSpace=wrap;fontSize=13;strokeColor=#5E5E5E;strokeWidth=1.5;rounded=1;arcSize=12;edgeStyle=orthogonalEdgeStyle;startArrow=none;endArrow=block;endFill=1;exitX=0.5;exitY=1.012;exitPerimeter=0;entryX=0.5;entryY=0.004;entryPerimeter=0;lucidId=Vx_~N79dnMpK;" edge="1" parent="1" source="a4nmMdMJ64nFMSKrA753-14" target="a4nmMdMJ64nFMSKrA753-17">
          <mxGeometry width="100" height="100" relative="1" as="geometry">
            <Array as="points" />
          </mxGeometry>
        </mxCell>
        <mxCell id="a4nmMdMJ64nFMSKrA753-21" value="" style="html=1;jettySize=18;whiteSpace=wrap;fontSize=13.3;fontColor=#333333;fontStyle=1;align=center;strokeColor=#5E5E5E;strokeWidth=1.5;rounded=1;arcSize=12;edgeStyle=orthogonalEdgeStyle;startArrow=none;endArrow=block;endFill=1;exitX=0.5;exitY=0.996;exitPerimeter=0;lucidId=Yx_~yjpr_phs;" edge="1" parent="1" source="a4nmMdMJ64nFMSKrA753-17">
          <mxGeometry width="100" height="100" relative="1" as="geometry">
            <Array as="points" />
            <mxPoint x="510" y="1195" as="targetPoint" />
          </mxGeometry>
        </mxCell>
        <mxCell id="a4nmMdMJ64nFMSKrA753-22" value="Non" style="text;html=1;resizable=0;labelBackgroundColor=default;align=center;verticalAlign=middle;fontStyle=1;fontColor=#333333;fontSize=13.3;" vertex="1" parent="a4nmMdMJ64nFMSKrA753-21">
          <mxGeometry x="-0.3604319074999517" relative="1" as="geometry" />
        </mxCell>
        <mxCell id="a4nmMdMJ64nFMSKrA753-23" value="" style="html=1;jettySize=18;whiteSpace=wrap;fontSize=13.3;fontColor=#333333;fontStyle=1;align=center;strokeColor=#5E5E5E;strokeWidth=1.5;rounded=1;arcSize=12;edgeStyle=orthogonalEdgeStyle;startArrow=none;endArrow=block;endFill=1;exitX=0.007;exitY=0.5;exitPerimeter=0;entryX=-0.009;entryY=0.5;entryPerimeter=0;lucidId=_x_~2wx20vVe;" edge="1" parent="1" source="a4nmMdMJ64nFMSKrA753-8" target="a4nmMdMJ64nFMSKrA753-4">
          <mxGeometry width="100" height="100" relative="1" as="geometry">
            <Array as="points">
              <mxPoint x="368" y="398" />
              <mxPoint x="368" y="1226" />
            </Array>
          </mxGeometry>
        </mxCell>
        <mxCell id="a4nmMdMJ64nFMSKrA753-24" value="Non" style="text;html=1;resizable=0;labelBackgroundColor=default;align=center;verticalAlign=middle;fontStyle=1;fontColor=#333333;fontSize=13.3;" vertex="1" parent="a4nmMdMJ64nFMSKrA753-23">
          <mxGeometry relative="1" as="geometry" />
        </mxCell>
        <mxCell id="a4nmMdMJ64nFMSKrA753-25" value="Exécution manuelle" style="html=1;overflow=block;blockSpacing=1;whiteSpace=wrap;fontSize=14.3;fontFamily=Arimo;fontColor=#333333;spacing=0;strokeColor=none;strokeOpacity=0;fillOpacity=100;shadow=1;fillColor=#FFECA9;strokeWidth=0;lucidId=koTxUPab049Cm;" vertex="1" parent="1">
          <mxGeometry x="630" y="60" width="144" height="144" as="geometry" />
        </mxCell>
      </root>
    </mxGraphModel>
  </diagram>
</mxfile>
